<svg width="510" height="508" viewBox="0 0 510 508" fill="none" xmlns="http://www.w3.org/2000/svg">
<g clip-path="url(#clip0)">
<path d="M504.17 454.213C497.87 467.293 486.26 477.023 474.09 484.933C460.788 493.571 446.457 500.508 431.43 505.583C429.37 506.293 427.29 506.953 425.2 507.583H340.69C340.1 506.943 339.54 506.273 339.01 505.583C333.35 498.333 330.29 489.043 331.4 479.943C332.83 468.253 341.71 457.513 353.21 455.033C364.72 452.543 377.84 459.413 381.34 470.663C383.26 448.983 385.48 426.403 397 407.943C407.44 391.233 425.51 379.273 445.09 377.133C456.606 375.934 468.225 378.061 478.57 383.263C479.52 383.743 480.46 384.243 481.38 384.763C487.588 388.283 493.066 392.957 497.52 398.533C509.73 413.993 512.72 436.463 504.17 454.213Z" fill="#F2F2F2"/>
<path d="M480.76 386.133C441.461 418.14 410.406 459.101 390.2 505.583C389.91 506.243 389.62 506.913 389.34 507.583H385.36C385.64 506.913 385.92 506.243 386.21 505.583C390.06 496.583 394.31 487.743 398.98 479.133C408.917 460.824 420.609 443.523 433.89 427.473C447.163 411.403 461.988 396.682 478.15 383.523C478.278 383.419 478.419 383.331 478.57 383.263C478.851 383.141 479.156 383.084 479.462 383.096C479.768 383.108 480.067 383.19 480.337 383.334C480.608 383.478 480.842 383.682 481.022 383.929C481.203 384.176 481.325 384.462 481.38 384.763C481.409 385.026 481.366 385.292 481.257 385.533C481.148 385.774 480.977 385.981 480.76 386.133V386.133Z" fill="white"/>
<path d="M167.214 293.587C168.201 292.611 168.963 291.43 169.444 290.127C169.926 288.825 170.116 287.433 170.001 286.049C169.886 284.666 169.469 283.324 168.78 282.119C168.091 280.913 167.145 279.874 166.011 279.074L161.215 247.454L141.513 253.655L152.306 281.865C151.088 283.86 150.644 286.232 151.058 288.533C151.472 290.834 152.716 292.902 154.554 294.347C156.391 295.792 158.695 296.513 161.028 296.373C163.362 296.233 165.563 295.241 167.214 293.587H167.214Z" fill="#FFB8B8"/>
<path d="M146.919 278.711L134.766 221.955C133.582 216.518 133.813 210.868 135.438 205.547C137.064 200.225 140.028 195.41 144.047 191.562C159.603 176.572 179.596 157.677 186.502 152.79C192.984 148.169 200.827 145.854 208.779 146.214L208.945 146.232L219.399 156.112L196.626 193.601L162.055 215.262L165.902 270.891L146.919 278.711Z" fill="#3591E5"/>
<path d="M189.48 201.583H138.48C136.271 201.583 134.48 203.374 134.48 205.583C134.48 207.792 136.271 209.583 138.48 209.583H189.48C191.689 209.583 193.48 207.792 193.48 205.583C193.48 203.374 191.689 201.583 189.48 201.583Z" fill="#CCCCCC"/>
<path d="M189.48 288.583H138.48C136.271 288.583 134.48 290.374 134.48 292.583C134.48 294.792 136.271 296.583 138.48 296.583H189.48C191.689 296.583 193.48 294.792 193.48 292.583C193.48 290.374 191.689 288.583 189.48 288.583Z" fill="#CCCCCC"/>
<path d="M164.48 506.583C163.98 506.583 163.498 506.396 163.13 506.058C162.761 505.721 162.532 505.258 162.488 504.76L136.992 205.76C136.945 205.231 137.11 204.706 137.45 204.299C137.791 203.893 138.279 203.638 138.807 203.591C139.335 203.544 139.861 203.709 140.268 204.049C140.674 204.39 140.929 204.878 140.976 205.406L164.451 481.658L187.259 205.411C187.282 205.149 187.356 204.895 187.477 204.662C187.597 204.428 187.763 204.222 187.964 204.052C188.165 203.883 188.398 203.755 188.648 203.676C188.898 203.597 189.162 203.568 189.424 203.59C189.685 203.613 189.94 203.687 190.173 203.808C190.406 203.929 190.613 204.095 190.782 204.296C190.951 204.496 191.079 204.729 191.159 204.979C191.238 205.23 191.267 205.493 191.244 205.755L166.473 504.755C166.43 505.253 166.201 505.717 165.833 506.056C165.465 506.394 164.983 506.582 164.482 506.583H164.48Z" fill="#CCCCCC"/>
<path d="M221.715 134.246C236.206 134.246 247.953 122.498 247.953 108.007C247.953 93.5156 236.206 81.7681 221.715 81.7681C207.223 81.7681 195.476 93.5156 195.476 108.007C195.476 122.498 207.223 134.246 221.715 134.246Z" fill="#FFB8B8"/>
<path d="M143.516 494.591L131.038 490.614L140.44 440.589L158.858 446.459L143.516 494.591Z" fill="#FFB8B8"/>
<path d="M142.822 505.66L102.65 492.856L102.982 491.812C104.26 487.82 107.069 484.498 110.793 482.574C114.516 480.651 118.851 480.282 122.846 481.55L147.955 489.554L142.822 505.66Z" fill="#2F2E41"/>
<path d="M234.305 494.332H221.208L214.975 443.814H234.305V494.332Z" fill="#FFB8B8"/>
<path d="M196.449 505.994H236.612V491.09H211.258C207.332 491.095 203.568 492.656 200.792 495.433C198.015 498.209 196.454 501.973 196.449 505.899V505.994Z" fill="#2F2E41"/>
<path d="M233.922 477.938L229.502 477.279C216.095 475.281 215.292 475.161 213.163 474.227C212.076 473.749 212 466.533 212.653 425.971C213.131 396.197 213.728 359.141 212.57 339.248C212.522 338.463 212.212 337.717 211.688 337.131C211.165 336.544 210.459 336.151 209.684 336.014C208.91 335.878 208.112 336.006 207.419 336.379C206.727 336.751 206.18 337.346 205.867 338.068C195.891 361.105 179.155 412.658 168.08 446.772C164.228 458.638 161.185 468.011 159.26 473.629C158.888 474.692 158.133 475.577 157.143 476.113C156.153 476.649 154.999 476.797 153.906 476.527C144.792 474.249 145.402 473.28 132.421 469.923C131.298 469.636 130.329 468.927 129.717 467.942C129.105 466.958 128.898 465.775 129.139 464.641C131.487 453.569 174.453 274.041 177.742 256.975C177.854 256.391 178.079 255.835 178.407 255.339C178.734 254.842 179.157 254.416 179.65 254.084C180.144 253.752 180.698 253.52 181.281 253.404C181.864 253.287 182.464 253.287 183.047 253.404C192.721 255.353 198.607 257.421 208.166 259.42C218.482 261.578 229.149 263.809 239.553 265.892C240.588 266.1 241.516 266.669 242.172 267.497C244.746 270.749 248.564 272.574 252.606 274.506C255.33 275.809 249.156 275.692 251.529 277.57C261.139 285.178 247.319 439.658 238.969 474.548C238.701 475.64 238.035 476.593 237.102 477.22C236.168 477.847 235.034 478.103 233.922 477.938V477.938Z" fill="#2F2E41"/>
<path d="M232.898 130.967C231.366 124.467 239.11 110.48 237.579 103.98C236.541 99.578 226.19 102.57 223.774 98.747C221.359 94.9236 217.313 91.826 212.79 91.7753C207.592 91.717 202.477 95.5728 197.553 93.9063C192.575 92.2213 190.983 85.4034 193.185 80.6304C195.386 75.8574 200.127 72.8159 204.812 70.4326C212.79 66.3742 222.078 63.4105 230.617 66.0956C235.778 67.7188 240.094 71.2359 244.27 74.6759C248.077 77.8116 251.948 81.0184 254.609 85.1709C259.822 93.3057 259.508 104.266 255.053 112.84C250.597 121.414 242.479 127.705 233.534 131.357" fill="#2F2E41"/>
<path d="M168.47 282.233C171.302 277.502 175.602 255.336 180.904 218.13C184.514 192.731 187.659 166.924 189.22 153.741C189.341 152.674 189.731 151.655 190.354 150.781C190.976 149.906 191.811 149.203 192.779 148.74C193.792 148.251 194.798 147.788 195.799 147.352C208.722 141.731 221.819 139.868 234.723 141.816C247.608 143.795 259.694 149.302 269.642 157.727L269.76 157.838L269.79 157.996C269.846 158.289 275.266 187.494 264.165 207.225C253.217 226.694 253.089 278.252 253.089 278.77V279.433L252.451 279.251C235.419 274.385 169.626 282.899 168.964 282.986L167.939 283.119L168.47 282.233Z" fill="#3591E5"/>
<path d="M267.48 214.583H216.48C214.271 214.583 212.48 216.374 212.48 218.583C212.48 220.792 214.271 222.583 216.48 222.583H267.48C269.689 222.583 271.48 220.792 271.48 218.583C271.48 216.374 269.689 214.583 267.48 214.583Z" fill="#CCCCCC"/>
<path d="M267.48 301.583H216.48C214.271 301.583 212.48 303.374 212.48 305.583C212.48 307.792 214.271 309.583 216.48 309.583H267.48C269.689 309.583 271.48 307.792 271.48 305.583C271.48 303.374 269.689 301.583 267.48 301.583Z" fill="#CCCCCC"/>
<path d="M242.48 507.583C241.98 507.583 241.498 507.396 241.13 507.058C240.761 506.721 240.532 506.258 240.488 505.76L214.992 218.76C214.969 218.498 214.997 218.234 215.076 217.984C215.154 217.733 215.282 217.501 215.45 217.299C215.619 217.098 215.825 216.932 216.058 216.81C216.291 216.688 216.546 216.614 216.807 216.591C217.069 216.568 217.332 216.596 217.583 216.675C217.834 216.753 218.066 216.881 218.268 217.049C218.469 217.218 218.635 217.424 218.757 217.657C218.878 217.89 218.953 218.145 218.976 218.406L242.451 482.658L265.259 218.411C265.305 217.883 265.558 217.394 265.964 217.052C266.37 216.711 266.895 216.545 267.424 216.59C267.952 216.636 268.441 216.89 268.782 217.295C269.124 217.701 269.29 218.226 269.244 218.755L244.473 505.755C244.43 506.253 244.201 506.717 243.833 507.056C243.465 507.394 242.983 507.582 242.483 507.583H242.48Z" fill="#CCCCCC"/>
<path d="M226.013 302.85C225.715 301.494 225.717 300.089 226.021 298.734C226.324 297.379 226.921 296.107 227.769 295.008C228.617 293.909 229.696 293.009 230.93 292.372C232.164 291.734 233.522 291.376 234.909 291.32L256.117 267.382L269.286 283.293L244.897 301.11C244.836 303.446 243.92 305.68 242.322 307.386C240.724 309.092 238.556 310.153 236.228 310.368C233.9 310.582 231.575 309.935 229.692 308.55C227.809 307.164 226.5 305.136 226.013 302.85V302.85Z" fill="#FFB8B8"/>
<path d="M238.361 286.189L271.818 241.579L254.565 204.61L255.818 160.764L269.962 158.151L270.112 158.226C276.983 162.245 282.309 168.45 285.24 175.85C288.382 183.706 294.899 210.431 299.813 231.469C301.096 236.883 300.968 242.536 299.441 247.886C297.913 253.237 295.038 258.105 291.09 262.026L250.047 303.069L238.361 286.189Z" fill="#3591E5"/>
<path d="M98.1105 495.178L143.883 506.199C144.771 506.434 145.714 506.35 146.546 505.961C147.378 505.573 148.048 504.904 148.438 504.073L187.758 399.531C187.931 399.129 188.021 398.696 188.022 398.258C188.022 397.82 187.934 397.387 187.761 396.985C187.563 396.533 187.275 396.127 186.915 395.79C186.555 395.452 186.13 395.192 185.667 395.024L151.252 381.881C150.708 381.673 150.126 381.582 149.545 381.614C148.963 381.647 148.395 381.801 147.878 382.068C147.428 382.29 147.031 382.606 146.713 382.994C146.396 383.383 146.165 383.835 146.037 384.32L146.036 384.325L121.746 476.463L121.385 476.486C121.246 476.495 107.321 477.442 101.059 484.959C99.8906 486.367 99.0254 488.002 98.518 489.761C98.0106 491.519 97.8718 493.364 98.1105 495.178V495.178Z" fill="#CCCCCC"/>
<path d="M496 506.583C496 506.714 495.975 506.845 495.925 506.966C495.875 507.088 495.801 507.198 495.708 507.291C495.615 507.384 495.505 507.458 495.383 507.508C495.262 507.558 495.131 507.583 495 507.583H0.999985C0.734768 507.583 0.480429 507.478 0.292892 507.29C0.105356 507.103 -1.52588e-05 506.848 -1.52588e-05 506.583C-1.52588e-05 506.318 0.105356 506.063 0.292892 505.876C0.480429 505.688 0.734768 505.583 0.999985 505.583H495C495.131 505.583 495.262 505.608 495.383 505.658C495.505 505.708 495.615 505.782 495.708 505.875C495.801 505.968 495.875 506.078 495.925 506.2C495.975 506.321 496 506.452 496 506.583V506.583Z" fill="#3F3D56"/>
<path d="M131.26 436.574L131.05 438.563L172.781 442.983L172.992 440.994L131.26 436.574Z" fill="#B3B3B3"/>
<path d="M127.622 453.051L126.801 454.875L160.384 469.985L161.205 468.161L127.622 453.051Z" fill="#B3B3B3"/>
<path d="M177.384 426.985L137.801 413.875L138.622 412.051L178.205 425.161L177.384 426.985Z" fill="#B3B3B3"/>
<path d="M181.384 417.985L141.801 398.875L142.622 397.051L182.205 416.161L181.384 417.985Z" fill="#B3B3B3"/>
<path d="M124.131 468.711L122.832 470.231L151.372 494.611L152.67 493.09L124.131 468.711Z" fill="#B3B3B3"/>
<path d="M116.028 476.793L114.207 477.619L125.666 502.889L127.488 502.063L116.028 476.793Z" fill="#B3B3B3"/>
<path d="M384.34 477.987V22.1832C384.34 16.0282 384.457 9.86002 384.34 3.70577C384.335 3.4367 384.34 3.16708 384.34 2.89794C384.34 -0.962782 378.34 -0.969172 378.34 2.89794V458.702C378.34 464.857 378.223 471.025 378.34 477.179C378.345 477.448 378.34 477.718 378.34 477.987C378.34 481.848 384.34 481.854 384.34 477.987V477.987Z" fill="#F2F2F2"/>
<path d="M417.523 130.291H345.523C343.8 130.289 342.148 129.604 340.929 128.385C339.711 127.167 339.025 125.515 339.023 123.791V36.2915C339.025 34.5682 339.711 32.9161 340.929 31.6975C342.148 30.4789 343.8 29.7935 345.523 29.7915H417.523C419.246 29.7935 420.899 30.4789 422.117 31.6975C423.336 32.9161 424.021 34.5682 424.023 36.2915V123.791C424.021 125.515 423.336 127.167 422.117 128.385C420.899 129.604 419.246 130.289 417.523 130.291V130.291Z" fill="#F2F2F2"/>
</g>
<defs>
<clipPath id="clip0">
<rect width="509.046" height="507.583" fill="white"/>
</clipPath>
</defs>
</svg>
